<svg xmlns="http://www.w3.org/2000/svg" width="272" height="104" viewBox="0 0 272 104">
    <g fill="none" fill-rule="nonzero">
        <path fill="#00B0FF" d="M0 88V0l44 44.026V88z"/>
        <path fill="#0091EA" d="M88 88V0L44 44.026V88z"/>
        <g fill="#000">
            <path d="M122.07 36l13.426 37.712L148.852 36H163v52h-10.804V73.785l1.078-24.535L139.165 88h-7.398l-14.072-38.72 1.078 24.5v14.214H108V36zM188.542 73.923L195.782 50H207l-15.743 44.44-.868 2.025c-2.341 5.023-6.206 7.535-11.594 7.535a16.755 16.755 0 0 1-4.632-.675v-7.777l1.592.036c1.98 0 3.457-.296 4.434-.889.976-.592 1.743-1.575 2.299-2.95l1.23-3.163L170 50h11.255l7.287 23.923z"/>
            <path d="M223.61 40v9.516H235v7.595h-11.39v19.34c0 1.432.274 2.459.82 3.078.547.62 1.594.93 3.142.932 1.017.011 2.033-.073 3.035-.252v7.837c-2.026.63-4.134.951-6.255.954-7.236 0-10.925-3.665-11.068-10.996V57.123H202v-7.596h11.292V40.01L223.61 40zM255.686 89.998c-5.815 0-10.55-1.778-14.206-5.336-3.655-3.558-5.482-8.296-5.48-14.213v-1.026c0-3.968.77-7.518 2.309-10.65 1.422-3 3.699-5.516 6.546-7.235 2.822-1.694 6.042-2.54 9.66-2.538 5.425 0 9.696 1.705 12.813 5.114 3.116 3.409 4.674 8.245 4.672 14.507v4.312h-25.258c.34 2.583 1.373 4.654 3.097 6.213 1.725 1.559 3.904 2.338 6.537 2.338 4.08 0 7.269-1.474 9.568-4.423l5.205 5.81a15.885 15.885 0 0 1-6.451 5.243 21.212 21.212 0 0 1-9.012 1.884zm-1.209-32.487c-2.1 0-3.805.71-5.113 2.13-1.309 1.42-2.146 3.451-2.513 6.094h14.739v-.857c-.05-2.347-.686-4.164-1.908-5.45-1.222-1.287-2.957-1.926-5.205-1.917z"/>
        </g>
    </g>
</svg>
